<svg xmlns="http://www.w3.org/2000/svg" viewBox="0 0 1200 900" width="1200" height="900" role="img" aria-label="Kryeqyteti rikthen sheshin"><rect width="1200" height="900" fill="#f2f0ec"/><rect x="0" y="0" width="1200" height="96" fill="#14110f"/><text x="60" y="66" font-family="Instrument Serif, Georgia, Times New Roman, serif" font-size="52" fill="#f2f0ec">Gazeta Shqiptare</text><text x="1140" y="62" text-anchor="end" font-family="Inter Tight, Helvetica Neue, Arial, sans-serif" font-size="18" fill="#f2f0ec" opacity=".7">E premte, 12 Maj</text><line x1="60" y1="130" x2="1140" y2="130" stroke="#14110f" stroke-width="3"/><text x="60" y="210" font-family="Instrument Serif, Georgia, Times New Roman, serif" font-size="72" fill="#14110f">Kryeqyteti rikthen sheshin</text><rect x="60" y="250" width="620" height="380" fill="#e0d8cc"/><path d="M60 630 L300 400 L470 560 L610 450 L680 520 L680 630Z" fill="#b4462f" opacity=".85"/><circle cx="560" cy="330" r="42" fill="#b4462f"/><rect x="720" y="262" width="128" height="3.1" fill="#14110f" opacity="0.4"/><rect x="720" y="276" width="143" height="3.1" fill="#14110f" opacity="0.4"/><rect x="720" y="290" width="136" height="3.1" fill="#14110f" opacity="0.4"/><rect x="720" y="304" width="194" height="3.1" fill="#14110f" opacity="0.4"/><rect x="720" y="318" width="128" height="3.1" fill="#14110f" opacity="0.4"/><rect x="720" y="332" width="185" height="3.1" fill="#14110f" opacity="0.4"/><rect x="720" y="346" width="170" height="3.1" fill="#14110f" opacity="0.4"/><rect x="720" y="360" width="183" height="3.1" fill="#14110f" opacity="0.4"/><rect x="720" y="374" width="141" height="3.1" fill="#14110f" opacity="0.4"/><rect x="720" y="388" width="162" height="3.1" fill="#14110f" opacity="0.4"/><rect x="720" y="402" width="191" height="3.1" fill="#14110f" opacity="0.4"/><rect x="720" y="416" width="184" height="3.1" fill="#14110f" opacity="0.4"/><rect x="720" y="430" width="128" height="3.1" fill="#14110f" opacity="0.4"/><rect x="720" y="444" width="182" height="3.1" fill="#14110f" opacity="0.4"/><rect x="720" y="458" width="195" height="3.1" fill="#14110f" opacity="0.4"/><rect x="720" y="472" width="172" height="3.1" fill="#14110f" opacity="0.4"/><rect x="720" y="486" width="187" height="3.1" fill="#14110f" opacity="0.4"/><rect x="720" y="500" width="132" height="3.1" fill="#14110f" opacity="0.4"/><rect x="720" y="514" width="176" height="3.1" fill="#14110f" opacity="0.4"/><rect x="720" y="528" width="163" height="3.1" fill="#14110f" opacity="0.4"/><rect x="720" y="542" width="174" height="3.1" fill="#14110f" opacity="0.4"/><rect x="720" y="556" width="172" height="3.1" fill="#14110f" opacity="0.4"/><rect x="720" y="570" width="141" height="3.1" fill="#14110f" opacity="0.4"/><rect x="720" y="584" width="129" height="3.1" fill="#14110f" opacity="0.4"/><rect x="720" y="598" width="190" height="3.1" fill="#14110f" opacity="0.4"/><rect x="943" y="262" width="152" height="3.1" fill="#14110f" opacity="0.4"/><rect x="943" y="276" width="177" height="3.1" fill="#14110f" opacity="0.4"/><rect x="943" y="290" width="188" height="3.1" fill="#14110f" opacity="0.4"/><rect x="943" y="304" width="152" height="3.1" fill="#14110f" opacity="0.4"/><rect x="943" y="318" width="125" height="3.1" fill="#14110f" opacity="0.4"/><rect x="943" y="332" width="196" height="3.1" fill="#14110f" opacity="0.4"/><rect x="943" y="346" width="173" height="3.1" fill="#14110f" opacity="0.4"/><rect x="943" y="360" width="155" height="3.1" fill="#14110f" opacity="0.4"/><rect x="943" y="374" width="170" height="3.1" fill="#14110f" opacity="0.4"/><rect x="943" y="388" width="171" height="3.1" fill="#14110f" opacity="0.4"/><rect x="943" y="402" width="146" height="3.1" fill="#14110f" opacity="0.4"/><rect x="943" y="416" width="142" height="3.1" fill="#14110f" opacity="0.4"/><rect x="943" y="430" width="177" height="3.1" fill="#14110f" opacity="0.4"/><rect x="943" y="444" width="131" height="3.1" fill="#14110f" opacity="0.4"/><rect x="943" y="458" width="143" height="3.1" fill="#14110f" opacity="0.4"/><rect x="943" y="472" width="147" height="3.1" fill="#14110f" opacity="0.4"/><rect x="943" y="486" width="141" height="3.1" fill="#14110f" opacity="0.4"/><rect x="943" y="500" width="130" height="3.1" fill="#14110f" opacity="0.4"/><rect x="943" y="514" width="188" height="3.1" fill="#14110f" opacity="0.4"/><rect x="943" y="528" width="133" height="3.1" fill="#14110f" opacity="0.4"/><rect x="943" y="542" width="133" height="3.1" fill="#14110f" opacity="0.4"/><rect x="943" y="556" width="181" height="3.1" fill="#14110f" opacity="0.4"/><rect x="943" y="570" width="136" height="3.1" fill="#14110f" opacity="0.4"/><rect x="943" y="584" width="183" height="3.1" fill="#14110f" opacity="0.4"/><rect x="943" y="598" width="158" height="3.1" fill="#14110f" opacity="0.4"/><rect x="60" y="664" width="234" height="3.1" fill="#14110f" opacity="0.4"/><rect x="60" y="678" width="208" height="3.1" fill="#14110f" opacity="0.4"/><rect x="60" y="692" width="190" height="3.1" fill="#14110f" opacity="0.4"/><rect x="60" y="706" width="198" height="3.1" fill="#14110f" opacity="0.4"/><rect x="60" y="720" width="227" height="3.1" fill="#14110f" opacity="0.4"/><rect x="60" y="734" width="236" height="3.1" fill="#14110f" opacity="0.4"/><rect x="60" y="748" width="201" height="3.1" fill="#14110f" opacity="0.4"/><rect x="60" y="762" width="235" height="3.1" fill="#14110f" opacity="0.4"/><rect x="60" y="776" width="189" height="3.1" fill="#14110f" opacity="0.4"/><rect x="60" y="790" width="189" height="3.1" fill="#14110f" opacity="0.4"/><rect x="60" y="804" width="176" height="3.1" fill="#14110f" opacity="0.4"/><rect x="60" y="818" width="184" height="3.1" fill="#14110f" opacity="0.4"/><rect x="60" y="832" width="200" height="3.1" fill="#14110f" opacity="0.4"/><rect x="336" y="664" width="187" height="3.1" fill="#14110f" opacity="0.4"/><rect x="336" y="678" width="166" height="3.1" fill="#14110f" opacity="0.4"/><rect x="336" y="692" width="179" height="3.1" fill="#14110f" opacity="0.4"/><rect x="336" y="706" width="210" height="3.1" fill="#14110f" opacity="0.4"/><rect x="336" y="720" width="174" height="3.1" fill="#14110f" opacity="0.4"/><rect x="336" y="734" width="166" height="3.1" fill="#14110f" opacity="0.4"/><rect x="336" y="748" width="190" height="3.1" fill="#14110f" opacity="0.4"/><rect x="336" y="762" width="249" height="3.1" fill="#14110f" opacity="0.4"/><rect x="336" y="776" width="201" height="3.1" fill="#14110f" opacity="0.4"/><rect x="336" y="790" width="168" height="3.1" fill="#14110f" opacity="0.4"/><rect x="336" y="804" width="238" height="3.1" fill="#14110f" opacity="0.4"/><rect x="336" y="818" width="227" height="3.1" fill="#14110f" opacity="0.4"/><rect x="336" y="832" width="183" height="3.1" fill="#14110f" opacity="0.4"/><rect x="612" y="664" width="181" height="3.1" fill="#14110f" opacity="0.4"/><rect x="612" y="678" width="189" height="3.1" fill="#14110f" opacity="0.4"/><rect x="612" y="692" width="179" height="3.1" fill="#14110f" opacity="0.4"/><rect x="612" y="706" width="215" height="3.1" fill="#14110f" opacity="0.4"/><rect x="612" y="720" width="223" height="3.1" fill="#14110f" opacity="0.4"/><rect x="612" y="734" width="195" height="3.1" fill="#14110f" opacity="0.4"/><rect x="612" y="748" width="188" height="3.1" fill="#14110f" opacity="0.4"/><rect x="612" y="762" width="177" height="3.1" fill="#14110f" opacity="0.4"/><rect x="612" y="776" width="178" height="3.1" fill="#14110f" opacity="0.4"/><rect x="612" y="790" width="235" height="3.1" fill="#14110f" opacity="0.4"/><rect x="612" y="804" width="186" height="3.1" fill="#14110f" opacity="0.4"/><rect x="612" y="818" width="165" height="3.1" fill="#14110f" opacity="0.4"/><rect x="612" y="832" width="204" height="3.1" fill="#14110f" opacity="0.4"/><rect x="888" y="664" width="195" height="3.1" fill="#14110f" opacity="0.4"/><rect x="888" y="678" width="197" height="3.1" fill="#14110f" opacity="0.4"/><rect x="888" y="692" width="232" height="3.1" fill="#14110f" opacity="0.4"/><rect x="888" y="706" width="244" height="3.1" fill="#14110f" opacity="0.4"/><rect x="888" y="720" width="218" height="3.1" fill="#14110f" opacity="0.4"/><rect x="888" y="734" width="166" height="3.1" fill="#14110f" opacity="0.4"/><rect x="888" y="748" width="181" height="3.1" fill="#14110f" opacity="0.4"/><rect x="888" y="762" width="173" height="3.1" fill="#14110f" opacity="0.4"/><rect x="888" y="776" width="238" height="3.1" fill="#14110f" opacity="0.4"/><rect x="888" y="790" width="238" height="3.1" fill="#14110f" opacity="0.4"/><rect x="888" y="804" width="196" height="3.1" fill="#14110f" opacity="0.4"/><rect x="888" y="818" width="202" height="3.1" fill="#14110f" opacity="0.4"/><rect x="888" y="832" width="166" height="3.1" fill="#14110f" opacity="0.4"/></svg>