<svg xmlns="http://www.w3.org/2000/svg" viewBox="0 0 1200 900" width="1200" height="900" role="img" aria-label="Arti në periferi"><rect width="1200" height="900" fill="#e8e3d9"/><rect x="0" y="0" width="1200" height="96" fill="#1d1a17"/><text x="60" y="66" font-family="Instrument Serif, Georgia, Times New Roman, serif" font-size="52" fill="#e8e3d9">Suplement</text><text x="1140" y="62" text-anchor="end" font-family="Inter Tight, Helvetica Neue, Arial, sans-serif" font-size="18" fill="#e8e3d9" opacity=".7">Shtojcë javore</text><line x1="60" y1="130" x2="1140" y2="130" stroke="#1d1a17" stroke-width="3"/><text x="60" y="210" font-family="Instrument Serif, Georgia, Times New Roman, serif" font-size="72" fill="#1d1a17">Arti në periferi</text><rect x="60" y="250" width="620" height="380" fill="#cdc3b2"/><path d="M60 630 L300 400 L470 560 L610 450 L680 520 L680 630Z" fill="#7d6a52" opacity=".85"/><circle cx="560" cy="330" r="42" fill="#7d6a52"/><rect x="720" y="262" width="191" height="3.1" fill="#1d1a17" opacity="0.4"/><rect x="720" y="276" width="127" height="3.1" fill="#1d1a17" opacity="0.4"/><rect x="720" y="290" width="152" height="3.1" fill="#1d1a17" opacity="0.4"/><rect x="720" y="304" width="190" height="3.1" fill="#1d1a17" opacity="0.4"/><rect x="720" y="318" width="133" height="3.1" fill="#1d1a17" opacity="0.4"/><rect x="720" y="332" width="150" height="3.1" fill="#1d1a17" opacity="0.4"/><rect x="720" y="346" width="160" height="3.1" fill="#1d1a17" opacity="0.4"/><rect x="720" y="360" width="169" height="3.1" fill="#1d1a17" opacity="0.4"/><rect x="720" y="374" width="139" height="3.1" fill="#1d1a17" opacity="0.4"/><rect x="720" y="388" width="131" height="3.1" fill="#1d1a17" opacity="0.4"/><rect x="720" y="402" width="192" height="3.1" fill="#1d1a17" opacity="0.4"/><rect x="720" y="416" width="152" height="3.1" fill="#1d1a17" opacity="0.4"/><rect x="720" y="430" width="136" height="3.1" fill="#1d1a17" opacity="0.4"/><rect x="720" y="444" width="159" height="3.1" fill="#1d1a17" opacity="0.4"/><rect x="720" y="458" width="143" height="3.1" fill="#1d1a17" opacity="0.4"/><rect x="720" y="472" width="130" height="3.1" fill="#1d1a17" opacity="0.4"/><rect x="720" y="486" width="176" height="3.1" fill="#1d1a17" opacity="0.4"/><rect x="720" y="500" width="145" height="3.1" fill="#1d1a17" opacity="0.4"/><rect x="720" y="514" width="145" height="3.1" fill="#1d1a17" opacity="0.4"/><rect x="720" y="528" width="124" height="3.1" fill="#1d1a17" opacity="0.4"/><rect x="720" y="542" width="188" height="3.1" fill="#1d1a17" opacity="0.4"/><rect x="720" y="556" width="136" height="3.1" fill="#1d1a17" opacity="0.4"/><rect x="720" y="570" width="185" height="3.1" fill="#1d1a17" opacity="0.4"/><rect x="720" y="584" width="154" height="3.1" fill="#1d1a17" opacity="0.4"/><rect x="720" y="598" width="136" height="3.1" fill="#1d1a17" opacity="0.4"/><rect x="943" y="262" width="164" height="3.1" fill="#1d1a17" opacity="0.4"/><rect x="943" y="276" width="148" height="3.1" fill="#1d1a17" opacity="0.4"/><rect x="943" y="290" width="175" height="3.1" fill="#1d1a17" opacity="0.4"/><rect x="943" y="304" width="167" height="3.1" fill="#1d1a17" opacity="0.4"/><rect x="943" y="318" width="129" height="3.1" fill="#1d1a17" opacity="0.4"/><rect x="943" y="332" width="135" height="3.1" fill="#1d1a17" opacity="0.4"/><rect x="943" y="346" width="152" height="3.1" fill="#1d1a17" opacity="0.4"/><rect x="943" y="360" width="125" height="3.1" fill="#1d1a17" opacity="0.4"/><rect x="943" y="374" width="197" height="3.1" fill="#1d1a17" opacity="0.4"/><rect x="943" y="388" width="149" height="3.1" fill="#1d1a17" opacity="0.4"/><rect x="943" y="402" width="169" height="3.1" fill="#1d1a17" opacity="0.4"/><rect x="943" y="416" width="167" height="3.1" fill="#1d1a17" opacity="0.4"/><rect x="943" y="430" width="190" height="3.1" fill="#1d1a17" opacity="0.4"/><rect x="943" y="444" width="143" height="3.1" fill="#1d1a17" opacity="0.4"/><rect x="943" y="458" width="151" height="3.1" fill="#1d1a17" opacity="0.4"/><rect x="943" y="472" width="156" height="3.1" fill="#1d1a17" opacity="0.4"/><rect x="943" y="486" width="151" height="3.1" fill="#1d1a17" opacity="0.4"/><rect x="943" y="500" width="181" height="3.1" fill="#1d1a17" opacity="0.4"/><rect x="943" y="514" width="152" height="3.1" fill="#1d1a17" opacity="0.4"/><rect x="943" y="528" width="151" height="3.1" fill="#1d1a17" opacity="0.4"/><rect x="943" y="542" width="138" height="3.1" fill="#1d1a17" opacity="0.4"/><rect x="943" y="556" width="136" height="3.1" fill="#1d1a17" opacity="0.4"/><rect x="943" y="570" width="174" height="3.1" fill="#1d1a17" opacity="0.4"/><rect x="943" y="584" width="128" height="3.1" fill="#1d1a17" opacity="0.4"/><rect x="943" y="598" width="139" height="3.1" fill="#1d1a17" opacity="0.4"/><rect x="60" y="664" width="225" height="3.1" fill="#1d1a17" opacity="0.4"/><rect x="60" y="678" width="234" height="3.1" fill="#1d1a17" opacity="0.4"/><rect x="60" y="692" width="244" height="3.1" fill="#1d1a17" opacity="0.4"/><rect x="60" y="706" width="240" height="3.1" fill="#1d1a17" opacity="0.4"/><rect x="60" y="720" width="234" height="3.1" fill="#1d1a17" opacity="0.4"/><rect x="60" y="734" width="223" height="3.1" fill="#1d1a17" opacity="0.4"/><rect x="60" y="748" width="213" height="3.1" fill="#1d1a17" opacity="0.4"/><rect x="60" y="762" width="205" height="3.1" fill="#1d1a17" opacity="0.4"/><rect x="60" y="776" width="250" height="3.1" fill="#1d1a17" opacity="0.4"/><rect x="60" y="790" width="182" height="3.1" fill="#1d1a17" opacity="0.4"/><rect x="60" y="804" width="186" height="3.1" fill="#1d1a17" opacity="0.4"/><rect x="60" y="818" width="172" height="3.1" fill="#1d1a17" opacity="0.4"/><rect x="60" y="832" width="189" height="3.1" fill="#1d1a17" opacity="0.4"/><rect x="336" y="664" width="217" height="3.1" fill="#1d1a17" opacity="0.4"/><rect x="336" y="678" width="222" height="3.1" fill="#1d1a17" opacity="0.4"/><rect x="336" y="692" width="177" height="3.1" fill="#1d1a17" opacity="0.4"/><rect x="336" y="706" width="243" height="3.1" fill="#1d1a17" opacity="0.4"/><rect x="336" y="720" width="248" height="3.1" fill="#1d1a17" opacity="0.4"/><rect x="336" y="734" width="186" height="3.1" fill="#1d1a17" opacity="0.4"/><rect x="336" y="748" width="208" height="3.1" fill="#1d1a17" opacity="0.4"/><rect x="336" y="762" width="194" height="3.1" fill="#1d1a17" opacity="0.4"/><rect x="336" y="776" width="160" height="3.1" fill="#1d1a17" opacity="0.4"/><rect x="336" y="790" width="246" height="3.1" fill="#1d1a17" opacity="0.4"/><rect x="336" y="804" width="195" height="3.1" fill="#1d1a17" opacity="0.4"/><rect x="336" y="818" width="235" height="3.1" fill="#1d1a17" opacity="0.4"/><rect x="336" y="832" width="208" height="3.1" fill="#1d1a17" opacity="0.4"/><rect x="612" y="664" width="196" height="3.1" fill="#1d1a17" opacity="0.4"/><rect x="612" y="678" width="163" height="3.1" fill="#1d1a17" opacity="0.4"/><rect x="612" y="692" width="227" height="3.1" fill="#1d1a17" opacity="0.4"/><rect x="612" y="706" width="237" height="3.1" fill="#1d1a17" opacity="0.4"/><rect x="612" y="720" width="177" height="3.1" fill="#1d1a17" opacity="0.4"/><rect x="612" y="734" width="250" height="3.1" fill="#1d1a17" opacity="0.4"/><rect x="612" y="748" width="166" height="3.1" fill="#1d1a17" opacity="0.4"/><rect x="612" y="762" width="219" height="3.1" fill="#1d1a17" opacity="0.4"/><rect x="612" y="776" width="218" height="3.1" fill="#1d1a17" opacity="0.4"/><rect x="612" y="790" width="215" height="3.1" fill="#1d1a17" opacity="0.4"/><rect x="612" y="804" width="235" height="3.1" fill="#1d1a17" opacity="0.4"/><rect x="612" y="818" width="173" height="3.1" fill="#1d1a17" opacity="0.4"/><rect x="612" y="832" width="231" height="3.1" fill="#1d1a17" opacity="0.4"/><rect x="888" y="664" width="168" height="3.1" fill="#1d1a17" opacity="0.4"/><rect x="888" y="678" width="251" height="3.1" fill="#1d1a17" opacity="0.4"/><rect x="888" y="692" width="159" height="3.1" fill="#1d1a17" opacity="0.4"/><rect x="888" y="706" width="249" height="3.1" fill="#1d1a17" opacity="0.4"/><rect x="888" y="720" width="203" height="3.1" fill="#1d1a17" opacity="0.4"/><rect x="888" y="734" width="231" height="3.1" fill="#1d1a17" opacity="0.4"/><rect x="888" y="748" width="232" height="3.1" fill="#1d1a17" opacity="0.4"/><rect x="888" y="762" width="165" height="3.1" fill="#1d1a17" opacity="0.4"/><rect x="888" y="776" width="199" height="3.1" fill="#1d1a17" opacity="0.4"/><rect x="888" y="790" width="156" height="3.1" fill="#1d1a17" opacity="0.4"/><rect x="888" y="804" width="178" height="3.1" fill="#1d1a17" opacity="0.4"/><rect x="888" y="818" width="198" height="3.1" fill="#1d1a17" opacity="0.4"/><rect x="888" y="832" width="158" height="3.1" fill="#1d1a17" opacity="0.4"/></svg>