<svg xmlns="http://www.w3.org/2000/svg" viewBox="0 0 1200 900" width="1200" height="900" role="img" aria-label="Kushtetuta"><rect width="1200" height="900" fill="#e8e3d9"/><rect x="90" y="60" width="1020" height="780" fill="none" stroke="#1d1a17" stroke-width="2" opacity=".35"/><circle cx="600" cy="170" r="52" fill="none" stroke="#7d6a52" stroke-width="4"/><circle cx="600" cy="170" r="38" fill="none" stroke="#7d6a52" stroke-width="2"/><text x="600" y="182" text-anchor="middle" font-family="Instrument Serif, Georgia, Times New Roman, serif" font-size="30" fill="#7d6a52">RSH</text><text x="600" y="280" text-anchor="middle" font-family="Instrument Serif, Georgia, Times New Roman, serif" font-size="44" fill="#1d1a17">Kushtetuta</text><text x="600" y="322" text-anchor="middle" font-family="Inter Tight, Helvetica Neue, Arial, sans-serif" font-size="19" letter-spacing="4" fill="#1d1a17" opacity=".55">BOTIM ZYRTAR</text><line x1="420" y1="350" x2="780" y2="350" stroke="#1d1a17" stroke-width="1" opacity=".4"/><text x="150" y="420" font-family="Inter Tight, Helvetica Neue, Arial, sans-serif" font-weight="700" font-size="17" fill="#7d6a52">Neni 1</text><rect x="150" y="436" width="643" height="4.8" fill="#1d1a17" opacity="0.45"/><rect x="150" y="458" width="722" height="4.8" fill="#1d1a17" opacity="0.45"/><rect x="150" y="480" width="888" height="4.8" fill="#1d1a17" opacity="0.45"/><text x="150" y="530" font-family="Inter Tight, Helvetica Neue, Arial, sans-serif" font-weight="700" font-size="17" fill="#7d6a52">Neni 2</text><rect x="150" y="546" width="563" height="4.8" fill="#1d1a17" opacity="0.45"/><rect x="150" y="568" width="562" height="4.8" fill="#1d1a17" opacity="0.45"/><rect x="150" y="590" width="664" height="4.8" fill="#1d1a17" opacity="0.45"/><text x="150" y="640" font-family="Inter Tight, Helvetica Neue, Arial, sans-serif" font-weight="700" font-size="17" fill="#7d6a52">Neni 3</text><rect x="150" y="656" width="823" height="4.8" fill="#1d1a17" opacity="0.45"/><rect x="150" y="678" width="563" height="4.8" fill="#1d1a17" opacity="0.45"/><rect x="150" y="700" width="649" height="4.8" fill="#1d1a17" opacity="0.45"/><text x="150" y="750" font-family="Inter Tight, Helvetica Neue, Arial, sans-serif" font-weight="700" font-size="17" fill="#7d6a52">Neni 4</text><rect x="150" y="766" width="884" height="4.8" fill="#1d1a17" opacity="0.45"/><rect x="150" y="788" width="867" height="4.8" fill="#1d1a17" opacity="0.45"/><rect x="150" y="810" width="643" height="4.8" fill="#1d1a17" opacity="0.45"/></svg>