<svg xmlns="http://www.w3.org/2000/svg" viewBox="0 0 1200 900" width="1200" height="900" role="img" aria-label="BunkArt 1"><rect width="1200" height="900" fill="#f1efe9"/><rect x="0" y="0" width="1200" height="14" fill="#8fae91"/><text x="80" y="190" font-family="Inter Tight, Helvetica Neue, Arial, sans-serif" font-weight="700" font-size="78" letter-spacing="-2" fill="#1d2320">BunkArt 1</text><text x="84" y="240" font-family="Inter Tight, Helvetica Neue, Arial, sans-serif" font-size="22" letter-spacing="5" fill="#8fae91">MUZE / MUSEUM</text><rect x="80" y="300" width="500" height="340" fill="#33403a" opacity=".55"/><circle cx="330" cy="470" r="96" fill="#8fae91" opacity=".8"/><rect x="640" y="320" width="316" height="6.6" fill="#1d2320" opacity="0.45"/><rect x="640" y="350" width="306" height="6.6" fill="#1d2320" opacity="0.45"/><rect x="640" y="380" width="383" height="6.6" fill="#1d2320" opacity="0.45"/><rect x="640" y="410" width="414" height="6.6" fill="#1d2320" opacity="0.45"/><rect x="640" y="440" width="381" height="6.6" fill="#1d2320" opacity="0.45"/><rect x="640" y="470" width="300" height="6.6" fill="#1d2320" opacity="0.45"/><rect x="640" y="500" width="446" height="6.6" fill="#1d2320" opacity="0.45"/><rect x="640" y="530" width="414" height="6.6" fill="#1d2320" opacity="0.45"/><rect x="640" y="560" width="323" height="6.6" fill="#1d2320" opacity="0.45"/><rect x="80" y="700" width="1040" height="2" fill="#1d2320" opacity=".3"/><text x="80" y="760" font-family="Instrument Serif, Georgia, Times New Roman, serif" font-style="italic" font-size="30" fill="#1d2320" opacity=".8">Tuneli qendror</text></svg>